
<svg xmlns="http://www.w3.org/2000/svg" width="42" height="42" viewBox="0 0 24 24" fill="white">
  <path d="M12 2C5.37 2 0 7.37 0 14c0 5.3 3.438 9.8 8.207 11.387C8.607 25.6 8.8 25.088 8.8 24.8c0-.49-.018-1.78-.027-3.267-3.338.73-4.042-1.66-4.042-1.66-.546-1.387-1.332-1.755-1.332-1.755-1.09-.745.083-.73.083-.73 1.204.084 1.838 1.24 1.838 1.24 1.072 1.835 2.81 1.305 3.493 0.9980.11-.776.42-1.305.763-1.605-2.667-.303-5.466-1.333-5.466-5.933 0-1.312.468-2.386 1.238-3.227-.123-.303-.536-1.524.117-3.177 0 0 1.008-.322 3.3 1.23.957-.266 1.982-.398 3-.405 1.018.0072.043.138 3 .405 2.292-1.552 3.3-1.23 3.3-1.23.653 1.653.24 2.874.117 3.177.77.84 1.237 1.9151.237 3.227 0 4.61-2.8 5.625-5.472 5.922 0.432.372 0.816 1.103 0.816 2.222 0 1.606-.014 2.897-.014 3.293 0 .286.194.79.8 0.65 4.77-1.587 8.208-6.087 8.208-11.387C24 7.37 18.63 2 12 2z" />
</svg>
